swing
nRows=4
nColumns=135

# SIMM Motion File Header:
name swing
datacolumns 135
datarows 4
otherdata 1
range 0.10000000000000001000 0.14999999999999999000
endheader
time	hip_angle_r	knee_angle_r	ankle_angle_r	pelvis_tilt	tib_tx_r	tib_ty_r	pat_angle_r	pat_tx_r	pat_ty_r	subtalar_angle_r	mtp_angle_r	R.ASIS_tx	R.ASIS_ty	R.ASIS_tz	L.ASIS_tx	L.ASIS_ty	L.ASIS_tz	V.Sacral_tx	V.Sacral_ty	V.Sacral_tz	R.Thigh.Upper_tx	R.Thigh.Upper_ty	R.Thigh.Upper_tz	R.Thigh.Front_tx	R.Thigh.Front_ty	R.Thigh.Front_tz	R.Thigh.Rear_tx	R.Thigh.Rear_ty	R.Thigh.Rear_tz	L.Thigh.Upper_tx	L.Thigh.Upper_ty	L.Thigh.Upper_tz	L.Thigh.Front_tx	L.Thigh.Front_ty	L.Thigh.Front_tz	L.Thigh.Rear_tx	L.Thigh.Rear_ty	L.Thigh.Rear_tz	R.Shank.Upper_tx	R.Shank.Upper_ty	R.Shank.Upper_tz	R.Shank.Front_tx	R.Shank.Front_ty	R.Shank.Front_tz	R.Shank.Rear_tx	R.Shank.Rear_ty	R.Shank.Rear_tz	L.Shank.Upper_tx	L.Shank.Upper_ty	L.Shank.Upper_tz	L.Shank.Front_tx	L.Shank.Front_ty	L.Shank.Front_tz	L.Shank.Rear_tx	L.Shank.Rear_ty	L.Shank.Rear_tz	R.Heel_tx	R.Heel_ty	R.Heel_tz	R.Midfoot.Sup_tx	R.Midfoot.Sup_ty	R.Midfoot.Sup_tz	R.Midfoot.Lat_tx	R.Midfoot.Lat_ty	R.Midfoot.Lat_tz	R.Toe.Tip_tx	R.Toe.Tip_ty	R.Toe.Tip_tz	L.Heel_tx	L.Heel_ty	L.Heel_tz	L.Midfoot.Sup_tx	L.Midfoot.Sup_ty	L.Midfoot.Sup_tz	L.Midfoot.Lat_tx	L.Midfoot.Lat_ty	L.Midfoot.Lat_tz	L.Toe.Tip_tx	L.Toe.Tip_ty	L.Toe.Tip_tz	Sternum_tx	Sternum_ty	Sternum_tz	R.Acromium_tx	R.Acromium_ty	R.Acromium_tz	L.Acromium_tx	L.Acromium_ty	L.Acromium_tz	R.Bicep_tx	R.Bicep_ty	R.Bicep_tz	L.Bicep_tx	L.Bicep_ty	L.Bicep_tz	R.Elbow_tx	R.Elbow_ty	R.Elbow_tz	L.Elbow_tx	L.Elbow_ty	L.Elbow_tz	R.Wrist.Med_tx	R.Wrist.Med_ty	R.Wrist.Med_tz	R.Wrist.Lat_tx	R.Wrist.Lat_ty	R.Wrist.Lat_tz	L.Wrist.Med_tx	L.Wrist.Med_ty	L.Wrist.Med_tz	L.Wrist.Lat_tx	L.Wrist.Lat_ty	L.Wrist.Lat_tz	R.Toe.Lat_tx	R.Toe.Lat_ty	R.Toe.Lat_tz	R.Toe.Med_tx	R.Toe.Med_ty	R.Toe.Med_tz	L.Toe.Lat_tx	L.Toe.Lat_ty	L.Toe.Lat_tz	L.Toe.Med_tx	L.Toe.Med_ty	L.Toe.Med_tz	R.Temple_tx	R.Temple_ty	R.Temple_tz	L.Temple_tx	L.Temple_ty	L.Temple_tz	Top.Head_tx	Top.Head_ty	Top.Head_tz
      0.10000000000000001000	     14.28406484075858400000	    -68.19342443338901200000	      1.86785492464631610000	      0.00000000000000000000	      0.00513883326003869780	     -0.47854803981011212000	     17.50795116573039000000	      0.04031352924088604800	     -0.02264475484540645300	      0.00000000000000000000	      0.00000000000000000000	     -0.02710055169999999900	     -0.03088109220000000200	      0.12989716100000001000	     -0.02710055169999999900	     -0.03088109220000000200	     -0.13036931850000000000	     -0.22498976170000001000	     -0.03088109220000000200	      0.01020070830000000200	     -0.01050742840000000100	     -0.35682545820000000000	      0.17765722310000001000	      0.06804991690000000700	     -0.40350824190000001000	      0.09405294739999998900	      0.00641794460000000030	     -0.47655856099999999000	      0.17303991710000000000	     -0.07282296750000000200	     -0.33384930359999998000	     -0.19134538020000000000	      0.01770171780000000300	     -0.37063871610000004000	     -0.12719544020000001000	     -0.06949318540000000400	     -0.44388570320000004000	     -0.17604375080000001000	     -0.08122409009999999300	     -0.59299504709999995000	      0.15744465710000000000	     -0.05296456589999999600	     -0.67603453839999994000	      0.10941605860000000000	     -0.13618828310000000000	     -0.65991126010000001000	      0.16106241940000002000	     -0.08351249809999999900	     -0.65850122910000009000	     -0.17625050870000000000	     -0.03929312420000000100	     -0.71280581430000001000	     -0.12493091540000001000	     -0.10586556350000000000	     -0.70021253650000004000	     -0.18389127629999999000	     -0.40996583609999998000	     -0.79144457860000006000	      0.05912533379999999900	     -0.31849757640000004000	     -0.90672637629999997000	      0.04288588699999999800	     -0.35124091959999998000	     -0.90575974989999997000	      0.14359899429999998000	     -0.26372410559999998000	     -1.03786318200000020000	      0.09311374060000000800	     -0.19364106310000001000	     -1.02273566800000020000	     -0.09494057760000000600	     -0.02214659830000000100	     -1.03041775300000000000	     -0.07404419310000000300	     -0.04303615380000000400	     -1.03215852900000020000	     -0.17060860940000000000	      0.08646187299999999500	     -1.05826074300000020000	     -0.10995535930000000000	      0.00120071470000000010	      0.27716517210000002000	     -0.00293015759999999980	     -0.09501214969999999300	      0.36524123819999998000	      0.20816396270000001000	     -0.06303383760000000300	      0.39209950830000001000	     -0.20880591999999998000	     -0.10024026150000001000	      0.16458392090000001000	      0.25373749889999997000	     -0.03387485120000000000	      0.15420604810000002000	     -0.24021676780000001000	     -0.15099805199999999000	      0.06576328320000000800	      0.28267558869999998000	     -0.07766083039999999200	      0.05681881169999999900	     -0.28038801669999996000	     -0.03719579530000000100	     -0.17954555490000002000	      0.27650935529999998000	     -0.07822357770000000500	     -0.18847962080000000000	      0.32757437579999998000	      0.03628258480000000300	     -0.16931927369999999000	     -0.24213460010000001000	     -0.00795102240000000040	     -0.17741803060000003000	     -0.30307293330000001000	     -0.32434860150000000000	     -0.99290551880000000000	      0.16435988639999999000	     -0.29344310720000000000	     -0.99770270170000008000	      0.05765678739999999900	      0.01851048929999999900	     -1.05938650099999990000	     -0.18274296110000002000	      0.03756205690000000200	     -1.05727435999999990000	     -0.08223356330000000700	      0.07352116630000001000	      0.49666238700000004000	      0.08346015739999999800	      0.08164745630000000400	      0.50544360899999996000	     -0.05523336510000000100	      0.07992977190000000200	      0.67681819729999992000	      0.02893989020000000200
      0.11666666700000000000	     16.67576023363161800000	    -67.93082973017253300000	      2.55219936207045750000	      0.00000000000000000000	      0.00513530805113195970	     -0.47846294806737127000	     17.50588226712784100000	      0.04039607633148845800	     -0.02265249629045095600	      0.00000000000000000000	      0.00000000000000000000	     -0.02701783680000000000	     -0.03095148080000000000	      0.12967550610000000000	     -0.02701783680000000000	     -0.03095148080000000000	     -0.13052362360000000000	     -0.22359369730000000000	     -0.03095148080000000000	      0.01149804950000000100	      0.00138165760000000010	     -0.35332943270000000000	      0.17671084079999999000	      0.08215855329999999200	     -0.39728357850000001000	      0.09181712079999999900	      0.02289191960000000100	     -0.47325272660000001000	      0.17117618120000000000	     -0.07803203279999999800	     -0.33332723310000001000	     -0.19130262250000002000	      0.01166685170000000100	     -0.37200949340000000000	     -0.12774581460000001000	     -0.07728713419999999600	     -0.44434426860000004000	     -0.17584359730000002000	     -0.05944425140000000200	     -0.59267107129999996000	      0.15539910839999999000	     -0.02981875050000000100	     -0.67444022540000004000	      0.10628255580000000000	     -0.11329957890000000000	     -0.66142982380000004000	      0.15875754980000001000	     -0.09504796540000000300	     -0.65822634330000007000	     -0.17616295670000001000	     -0.04977880460000000400	     -0.71262790240000007000	     -0.12547137580000001000	     -0.11740538789999999000	     -0.70010734000000008000	     -0.18366891420000001000	     -0.38167538769999998000	     -0.80641838619999995000	      0.05511811020000000100	     -0.28284116749999999000	     -0.91519313530000002000	      0.03814178290000000400	     -0.31536130029999998000	     -0.91700521560000003000	      0.13867329300000000000	     -0.21933723359999999000	     -1.04301313000000010000	      0.08676310499999999300	     -0.20697003540000000000	     -1.02303132400000000000	     -0.09589966960000000100	     -0.03530272500000000000	     -1.03087453300000000000	     -0.07466442689999999700	     -0.05574996460000000000	     -1.03190222700000000000	     -0.17130860569999998000	      0.07332948699999999900	     -1.05841875699999990000	     -0.11058495729999999000	      0.00306205149999999980	      0.27802434240000001000	     -0.00055705279999999999	     -0.09644255289999999200	      0.36441546490000004000	      0.21079641880000000000	     -0.06108868129999999600	      0.39456054200000001000	     -0.20568936090000001000	     -0.10326543890000001000	      0.16411882510000000000	      0.25497019720000003000	     -0.02862703309999999800	      0.15696731919999998000	     -0.23795877110000002000	     -0.15566957610000001000	      0.06547165789999999400	      0.28324256040000001000	     -0.07037045699999999700	      0.05879250400000000200	     -0.27866425459999999000	     -0.04305406469999999800	     -0.18009876399999999000	      0.27761844450000001000	     -0.08644522739999999100	     -0.18921225690000001000	      0.32789167220000004000	      0.05051957790000000100	     -0.16324438180000000000	     -0.23835467380000000000	      0.00754603960000000020	     -0.17316967159999999000	     -0.30029221420000002000	     -0.28214575510000001000	     -1.00293475000000010000	      0.15838112480000002000	     -0.25045143809999998000	     -1.00469953700000000000	      0.05111093509999999800	      0.00560529550000000030	     -1.05931800700000010000	     -0.18349000560000001000	      0.02448397400000000200	     -1.05737977000000010000	     -0.08309679030000000100	      0.07330930739999999600	      0.49717536480000002000	      0.08757881480000000200	      0.08243498610000001000	      0.50720682929999994000	     -0.05054062050000000100	      0.07866405009999999400	      0.67806011410000000000	      0.03393069060000000100
      0.13333333300000000000	     18.10192823057312200000	    -66.37044096884783100000	      2.65975589209781970000	      0.00000000000000000000	      0.00510489835333770550	     -0.47796013430199979000	     17.49185284406213400000	      0.04088311771101680500	     -0.02270075477074496800	      0.00000000000000000000	      0.00000000000000000000	     -0.02707376300000000100	     -0.03088642679999999800	      0.12902473230000000000	     -0.02707376300000000100	     -0.03088642679999999800	     -0.13119497499999999000	     -0.22443750560000000000	     -0.03088642679999999800	      0.01052893060000000200	      0.00607486250000000010	     -0.35125682120000001000	      0.17455923749999999000	      0.08928003610000000100	     -0.39245379800000002000	      0.08908730180000000400	      0.03159633939999999900	     -0.47076082600000002000	      0.16735299979999999000	     -0.08462477379999999700	     -0.33188368759999998000	     -0.19349721630000000000	      0.00348701240000000000	     -0.37368519600000005000	     -0.12898778360000002000	     -0.08733836759999999400	     -0.44290795490000001000	     -0.17926247760000003000	     -0.04719700000000000300	     -0.59422925559999995000	      0.14759767609999999000	     -0.01281166480000000100	     -0.67351984070000004000	      0.09888881709999999800	     -0.09664018810000001000	     -0.66567643160000001000	      0.15143947330000002000	     -0.10898876360000000000	     -0.65748227410000004000	     -0.18079998159999999000	     -0.06471383109999999400	     -0.71239533190000004000	     -0.13070660970000000000	     -0.13196568049999999000	     -0.69864481379999999000	     -0.18890251180000001000	     -0.35772440830000002000	     -0.82345944569999996000	      0.04268818220000000100	     -0.25164392150000003000	     -0.92505233920000007000	      0.02528406150000000000	     -0.28461606110000004000	     -0.93063314570000000000	      0.12535340670000000000	     -0.18042081160000001000	     -1.04944582200000000000	      0.07212024859999999200	     -0.22582386729999998000	     -1.02207669600000010000	     -0.10526139499999999000	     -0.05451404260000000700	     -1.03118311999999990000	     -0.08157241089999998900	     -0.07338967409999999600	     -1.03063929400000000000	     -0.17877785530000001000	      0.05474430050000000200	     -1.05855508400000020000	     -0.11681432590000000000	      0.00304884049999999990	      0.27752120079999998000	      0.00411146939999999970	     -0.09936258609999999700	      0.36155296090000000000	      0.21463199580000000000	     -0.05681487460000000200	      0.39704281980000000000	     -0.20063340729999998000	     -0.11048917650000001000	      0.16143542959999999000	      0.25703030170000002000	     -0.02212588000000000100	      0.15985510340000000000	     -0.23505614130000002000	     -0.16460710549999999000	      0.06340967409999999400	      0.28253156660000001000	     -0.06204940369999999800	      0.06271900340000000100	     -0.27897205380000001000	     -0.05393227180000000100	     -0.18294966090000001000	      0.27676503300000005000	     -0.09811126430000000100	     -0.19221647930000002000	      0.32544672859999996000	      0.06449153389999999500	     -0.15572250479999999000	     -0.23528117180000002000	      0.02396948139999999900	     -0.16802641929999998000	     -0.29680330459999998000	     -0.24623951620000001000	     -1.01394574200000000000	      0.14412264220000001000	     -0.21272863210000001000	     -1.01259668200000010000	      0.03648219950000000000	     -0.01211638560000000000	     -1.05847965300000000000	     -0.19057898739999998000	      0.00569735230000000070	     -1.05746171900000000000	     -0.08992101730000000300	      0.07252858670000000800	      0.49569360450000000000	      0.09622688590000000300	      0.08406537350000001200	      0.50764789440000002000	     -0.04237894130000000000	      0.07917473499999999600	      0.67698609139999999000	      0.04426099969999999800
      0.14999999999999999000	     19.70822001397895200000	    -64.43399748736111100000	      2.94214200281087690000	      0.00000000000000000000	      0.00504462338091307350	     -0.47734320336699343000	     17.46989386153100900000	      0.04147953313714067300	     -0.02276516773457563900	      0.00000000000000000000	      0.00000000000000000000	     -0.02706660680000000000	     -0.03087986599999999900	      0.12878587170000000000	     -0.02706660680000000000	     -0.03087986599999999900	     -0.13159312120000002000	     -0.22442887820000001000	     -0.03087986599999999900	      0.01128224150000000000	      0.01442796010000000000	     -0.34820172220000001000	      0.17420803650000000000	      0.09635821340000000300	     -0.38757638789999999000	      0.08646356030000000600	      0.04302968430000000300	     -0.46698754380000002000	      0.16541795749999999000	     -0.09119603560000000300	     -0.33059777109999999000	     -0.19414673600000001000	     -0.00100292730000000010	     -0.37361007460000001000	     -0.13148734989999999000	     -0.09534639329999999900	     -0.44120075200000003000	     -0.18065396870000000000	     -0.03264780760000000200	     -0.59507198059999999000	      0.14592247760000002000	      0.00655156340000000000	     -0.67197659460000003000	      0.09430631990000000500	     -0.07889778850000001000	     -0.67003617660000003000	      0.14716628290000000000	     -0.12196950850000000000	     -0.65629626380000006000	     -0.18368461389999999000	     -0.07874599610000000700	     -0.71201810259999998000	     -0.13248772940000000000	     -0.14539516340000000000	     -0.69720889269999997000	     -0.19113298879999999000	     -0.32867103870000003000	     -0.84318885570000002000	      0.03614903679999999900	     -0.21520954889999999000	     -0.93632573770000005000	      0.01793604490000000000	     -0.24733433980000002000	     -0.94565765850000005000	      0.11791488800000001000	     -0.13536594729999998000	     -1.05584080400000000000	      0.06331548330000000300	     -0.24225791380000003000	     -1.02102815399999990000	     -0.10971324730000001000	     -0.07127686029999999500	     -1.03102902000000010000	     -0.08441866469999999300	     -0.08948466310000001400	     -1.02916593000000000000	     -0.18246107170000000000	      0.03860046290000000000	     -1.05801643199999980000	     -0.12018410470000000000	      0.00401460180000000070	      0.27761418240000002000	      0.00764275139999999980	     -0.10046435930000000000	      0.35996975300000006000	      0.21758418220000000000	     -0.05422015859999999900	      0.39939669010000001000	     -0.19704792530000001000	     -0.11472182470000000000	      0.15934467459999999000	      0.25886544719999999000	     -0.01749440370000000100	      0.16335620549999999000	     -0.23253219610000000000	     -0.17005612160000003000	      0.06250724500000000300	      0.28240600640000002000	     -0.05568689749999999900	      0.06469623590000001000	     -0.27695101899999996000	     -0.06042343799999999600	     -0.18421892330000000000	      0.27639968370000001000	     -0.10560448030000001000	     -0.19369764400000000000	      0.32432183030000000000	      0.07757188360000000200	     -0.14954438690000002000	     -0.23162237020000001000	      0.03554802699999999600	     -0.16271339530000001000	     -0.29261213689999999000	     -0.20287462660000000000	     -1.02579164800000000000	      0.13583277580000000000	     -0.17022384250000000000	     -1.02095524700000010000	      0.02816298189999999800	     -0.02812430040000000000	     -1.05735917800000000000	     -0.19432399789999999000	     -0.01054989600000000100	     -1.05698173000000000000	     -0.09346364349999999900	      0.07372469900000000500	      0.49599765720000000000	      0.10140858590000001000	      0.08476546000000000100	      0.50848876089999995000	     -0.03639357960000000300	      0.07882484119999999500	      0.67705259379999994000	      0.05066674160000000200
